<svg width="234" height="180" viewBox="0 0 234 180" fill="none" xmlns="http://www.w3.org/2000/svg">
<g id="basket1 1">
<g clip-path="url(#clip0)">
<g id="basket 1">
<path id="hinge" d="M206.042 153.055H58.1127L26.7873 6.59561H0.0532379V0.0241117H32.1732L63.4987 146.483H206.042V153.055Z" fill="#212123"/>
<path id="leftwheel" d="M82.2813 180C88.7097 180 93.9211 173.671 93.9211 165.863C93.9211 158.055 88.7097 151.726 82.2813 151.726C75.8529 151.726 70.6415 158.055 70.6415 165.863C70.6415 173.671 75.8529 180 82.2813 180Z" fill="#111111"/>
<path id="rightwheel" d="M184.431 180C190.748 180 195.87 173.671 195.87 165.863C195.87 158.055 190.748 151.726 184.431 151.726C178.113 151.726 172.991 158.055 172.991 165.863C172.991 173.671 178.113 180 184.431 180Z" fill="black"/>
<g id="bucket">
<path id="Vector" d="M203.345 149.959H59.4179L34.0236 25.8419H227.176C228.162 25.8419 229.135 26.0532 230.03 26.4611C230.926 26.8689 231.721 27.4637 232.362 28.2045C233.002 28.9453 233.473 29.8146 233.742 30.7525C234.01 31.6904 234.07 32.6747 233.917 33.6377L210.085 144.259C209.839 145.85 209.023 147.301 207.786 148.348C206.549 149.394 204.973 149.966 203.345 149.959ZM60.9809 148.082H203.345C204.52 148.087 205.657 147.674 206.55 146.919C207.443 146.163 208.032 145.116 208.209 143.967L232.041 33.3462C232.151 32.6511 232.108 31.9406 231.914 31.2636C231.721 30.5866 231.381 29.9592 230.919 29.4245C230.457 28.8898 229.882 28.4605 229.237 28.1661C228.59 27.8718 227.887 27.7194 227.176 27.7195H36.3281L60.9809 148.082Z" fill="#F0DC22"/>
<path id="Vector 2" d="M87.398 149.562L70.7675 26.9336L72.6404 26.6276L89.2708 149.256L87.398 149.562Z" fill="#F0DC22"/>
<path id="Vector 3" d="M179.87 148.621L177.995 148.32L194.14 26.6304L196.015 26.9308L179.87 148.621Z" fill="#F0DC22"/>
<path id="Vector 4" d="M135.812 26.7807H133.913V149.409H135.812V26.7807Z" fill="#F0DC22"/>
<path id="Vector 5" d="M43.7215 59.6401L43.7171 61.5178L227.49 61.9578L227.495 60.0802L43.7215 59.6401Z" fill="#F0DC22"/>
<path id="Vector 6" d="M214.527 117.643L53.0775 118.735L53.0907 120.612L214.539 119.521L214.527 117.643Z" fill="#F0DC22"/>
</g>
</g>
</g>
</g>
<defs>
<clipPath id="clip0">
<rect width="234" height="180" fill="white"/>
</clipPath>
</defs>
</svg>
